<svg width="1008" height="719" viewBox="0 0 1008 719" fill="none" xmlns="http://www.w3.org/2000/svg">
<g opacity="0.8" filter="url(#filter0_f)">
<ellipse cx="504.118" cy="578" rx="422.118" ry="59" fill="url(#paint0_linear)"/>
</g>
<g filter="url(#filter1_f)">
<ellipse cx="504.118" cy="560.155" rx="300.9" ry="38.0818" fill="url(#paint1_linear)"/>
</g>
<g filter="url(#filter2_di)">
<path d="M216.065 509.677C216.065 509.677 394.065 519.155 508.118 519.155C622.172 519.155 800.171 509.677 800.171 509.677V509.677C800.171 533.792 800.171 545.85 795.217 555.816C791.159 563.98 784.153 571.392 776.23 575.903C766.559 581.411 754.938 582.066 731.697 583.376C682.434 586.153 607.223 589.058 508.118 589.058C409.014 589.058 333.803 586.153 284.54 583.376C261.299 582.066 249.678 581.411 240.007 575.903C232.083 571.392 225.078 563.98 221.019 555.816C216.065 545.85 216.065 533.792 216.065 509.677V509.677Z" fill="url(#paint2_linear)"/>
</g>
<path d="M143.728 129.408C146.024 75.0143 147.171 47.8172 165.231 29.5777C183.29 11.3381 210.388 9.92465 264.585 7.09769C331.109 3.62768 418.689 0.213135 505.749 0.213135C592.808 0.213135 680.388 3.62768 746.913 7.09769C801.109 9.92466 828.207 11.3381 846.267 29.5777C864.326 47.8172 865.474 75.0143 867.77 129.408C869.653 174.018 871.259 224.212 871.259 265.608C871.259 307.005 869.653 357.198 867.77 401.808C865.474 456.202 864.326 483.399 846.267 501.638C828.207 519.878 801.109 521.291 746.913 524.118C680.388 527.588 592.808 531.003 505.749 531.003C418.689 531.003 331.109 527.588 264.585 524.118C210.388 521.291 183.29 519.878 165.231 501.638C147.171 483.399 146.024 456.202 143.728 401.808C141.845 357.198 140.238 307.005 140.238 265.608C140.238 224.212 141.845 174.018 143.728 129.408Z" fill="url(#paint3_linear)"/>
<g filter="url(#filter3_i)">
<path d="M162.982 130.111C165.157 84.3831 166.244 61.5191 181.592 46.0107C196.941 30.5023 219.714 29.1826 265.26 26.5432C327.912 22.9126 414.602 19.1699 505.748 19.1699C596.895 19.1699 683.585 22.9126 746.237 26.5432C791.783 29.1826 814.556 30.5023 829.905 46.0107C845.253 61.5191 846.34 84.383 848.515 130.111C850.523 172.338 852.302 222.045 852.302 265.608C852.302 309.172 850.523 358.879 848.515 401.105C846.34 446.833 845.253 469.697 829.905 485.205C814.556 500.714 791.783 502.033 746.237 504.673C683.585 508.304 596.895 512.046 505.748 512.046C414.602 512.046 327.912 508.304 265.26 504.673C219.714 502.033 196.941 500.714 181.592 485.205C166.244 469.697 165.157 446.833 162.982 401.105C160.974 358.879 159.195 309.172 159.195 265.608C159.195 222.045 160.974 172.338 162.982 130.111Z" fill="url(#paint4_linear)"/>
</g>
<path d="M265.466 30.0917C328.075 26.4635 414.692 22.7243 505.748 22.7243C596.805 22.7243 683.422 26.4635 746.031 30.0917C768.903 31.417 785.7 32.3981 798.714 34.9396C811.601 37.4564 820.376 41.4358 827.378 48.511C834.379 55.5844 838.269 64.4181 840.654 77.3722C843.063 90.4518 843.873 107.318 844.965 130.28C846.971 172.484 848.748 222.127 848.748 265.608C848.748 309.089 846.971 358.732 844.965 400.936C843.873 423.898 843.063 440.764 840.654 453.844C838.269 466.798 834.379 475.632 827.378 482.705C820.376 489.78 811.601 493.76 798.714 496.277C785.7 498.818 768.903 499.799 746.031 501.124C683.422 504.753 596.805 508.492 505.748 508.492C414.692 508.492 328.075 504.753 265.466 501.124C242.594 499.799 225.797 498.818 212.783 496.277C199.896 493.76 191.121 489.78 184.119 482.705C177.118 475.632 173.228 466.798 170.843 453.844C168.434 440.764 167.624 423.898 166.532 400.936C164.526 358.732 162.749 309.089 162.749 265.608C162.749 222.127 164.526 172.484 166.532 130.28C167.624 107.318 168.434 90.4518 170.843 77.3722C173.228 64.4181 177.118 55.5844 184.119 48.511C191.121 41.4358 199.896 37.4564 212.783 34.9396C225.797 32.398 242.594 31.417 265.466 30.0917Z" stroke="#451B1D" stroke-opacity="0.7" stroke-width="7.10879"/>
<g filter="url(#filter4_f)">
<path d="M203.062 112.478C204.478 92.9759 205.187 83.2249 212.327 75.816C219.467 68.407 228.795 67.3815 247.452 65.3306C282.718 61.4539 341.976 57.0835 429.921 57.0835C521.728 57.0835 580.018 61.3224 613.954 65.154C631.58 67.1441 640.393 68.1392 647.505 75.5355C654.616 82.9319 655.301 92.281 656.672 110.979C659.369 147.78 662.734 205.697 662.734 265.608C662.734 325.519 659.369 383.436 656.672 420.237C655.301 438.935 654.616 448.284 647.505 455.681C640.393 463.077 631.58 464.072 613.954 466.062C580.018 469.894 521.728 474.133 429.921 474.133C341.976 474.133 282.718 469.762 247.452 465.886C228.795 463.835 219.467 462.809 212.327 455.4C205.187 447.991 204.478 438.24 203.062 418.738C200.383 381.875 197.108 324.712 197.108 265.608C197.108 206.504 200.383 149.341 203.062 112.478Z" fill="url(#paint5_linear)"/>
<path d="M203.062 112.478C204.478 92.9759 205.187 83.2249 212.327 75.816C219.467 68.407 228.795 67.3815 247.452 65.3306C282.718 61.4539 341.976 57.0835 429.921 57.0835C521.728 57.0835 580.018 61.3224 613.954 65.154C631.58 67.1441 640.393 68.1392 647.505 75.5355C654.616 82.9319 655.301 92.281 656.672 110.979C659.369 147.78 662.734 205.697 662.734 265.608C662.734 325.519 659.369 383.436 656.672 420.237C655.301 438.935 654.616 448.284 647.505 455.681C640.393 463.077 631.58 464.072 613.954 466.062C580.018 469.894 521.728 474.133 429.921 474.133C341.976 474.133 282.718 469.762 247.452 465.886C228.795 463.835 219.467 462.809 212.327 455.4C205.187 447.991 204.478 438.24 203.062 418.738C200.383 381.875 197.108 324.712 197.108 265.608C197.108 206.504 200.383 149.341 203.062 112.478Z" fill="url(#paint6_linear)" fill-opacity="0.7"/>
<path d="M203.062 112.478C204.478 92.9759 205.187 83.2249 212.327 75.816C219.467 68.407 228.795 67.3815 247.452 65.3306C282.718 61.4539 341.976 57.0835 429.921 57.0835C521.728 57.0835 580.018 61.3224 613.954 65.154C631.58 67.1441 640.393 68.1392 647.505 75.5355C654.616 82.9319 655.301 92.281 656.672 110.979C659.369 147.78 662.734 205.697 662.734 265.608C662.734 325.519 659.369 383.436 656.672 420.237C655.301 438.935 654.616 448.284 647.505 455.681C640.393 463.077 631.58 464.072 613.954 466.062C580.018 469.894 521.728 474.133 429.921 474.133C341.976 474.133 282.718 469.762 247.452 465.886C228.795 463.835 219.467 462.809 212.327 455.4C205.187 447.991 204.478 438.24 203.062 418.738C200.383 381.875 197.108 324.712 197.108 265.608C197.108 206.504 200.383 149.341 203.062 112.478Z" stroke="url(#paint7_linear)" stroke-width="2.3696"/>
</g>
<g filter="url(#filter5_f)">
<path d="M572.097 443.328C572.097 445.426 501.218 461.692 436.438 461.692C371.658 461.692 289.523 445.426 289.523 443.328C289.523 441.23 371.658 454.687 436.438 454.687C501.218 454.687 572.097 441.23 572.097 443.328Z" fill="url(#paint8_linear)"/>
</g>
<g opacity="0.7" filter="url(#filter6_f)">
<path d="M636.891 119.878C638.989 119.878 655.255 190.757 655.255 255.537C655.255 320.317 638.989 402.452 636.891 402.452C634.793 402.452 648.25 320.317 648.25 255.537C648.25 190.757 634.793 119.878 636.891 119.878Z" fill="url(#paint9_linear)"/>
</g>
<g opacity="0.7" filter="url(#filter7_f)">
<path d="M236.207 124.025C234.109 124.025 211.918 164.308 211.326 255.537C211.326 320.317 227.592 402.452 229.691 402.452C231.789 402.452 218.331 320.317 218.331 255.537C218.331 190.757 238.305 124.025 236.207 124.025Z" fill="url(#paint10_linear)"/>
</g>
<g filter="url(#filter8_di)">
<mask id="mask0" style="mask-type:alpha" maskUnits="userSpaceOnUse" x="216" y="76" width="428" height="380">
<path d="M219.357 193.64C223.086 153.293 224.951 133.119 245.907 111.525C266.863 89.9305 287.465 87.4009 328.67 82.3416C357.886 78.7545 392.392 76.0403 429.922 76.0403C470.438 76.0403 505.808 78.7241 534.893 82.2813C573.396 86.9904 592.648 89.3449 613.588 110.811C634.529 132.277 636.402 151.543 640.148 190.076C642.289 212.095 643.778 237.51 643.778 265.608C643.778 293.707 642.289 319.121 640.148 341.14C636.402 379.673 634.529 398.939 613.588 420.405C592.648 441.871 573.396 444.226 534.893 448.935C505.808 452.492 470.438 455.176 429.922 455.176C392.392 455.176 357.886 452.462 328.67 448.875C287.465 443.815 266.863 441.286 245.907 419.691C224.951 398.097 223.086 377.924 219.357 337.576C217.399 316.393 216.065 292.203 216.065 265.608C216.065 239.013 217.399 214.823 219.357 193.64Z" fill="url(#paint11_linear)"/>
</mask>
<g mask="url(#mask0)">
<g filter="url(#filter9_i)">
<path d="M219.357 193.64C223.086 153.293 224.951 133.119 245.907 111.525C266.863 89.9305 287.465 87.4009 328.67 82.3416C357.886 78.7545 392.392 76.0403 429.922 76.0403C470.438 76.0403 505.808 78.7241 534.893 82.2813C573.396 86.9904 592.648 89.3449 613.588 110.811C634.529 132.277 636.402 151.543 640.148 190.076C642.289 212.095 643.778 237.51 643.778 265.608C643.778 293.707 642.289 319.121 640.148 341.14C636.402 379.673 634.529 398.939 613.588 420.405C592.648 441.871 573.396 444.226 534.893 448.935C505.808 452.492 470.438 455.176 429.922 455.176C392.392 455.176 357.886 452.462 328.67 448.875C287.465 443.815 266.863 441.286 245.907 419.691C224.951 398.097 223.086 377.924 219.357 337.576C217.399 316.393 216.065 292.203 216.065 265.608C216.065 239.013 217.399 214.823 219.357 193.64Z" fill="url(#paint12_linear)"/>
</g>
<g opacity="0.7" filter="url(#filter10_f)">
<ellipse cx="430.514" cy="125.209" rx="244.069" ry="106.039" fill="white"/>
</g>
<g opacity="0.8" filter="url(#filter11_f)">
<ellipse cx="432.884" cy="436.811" rx="178.905" ry="11.2556" fill="white"/>
</g>
<path d="M395.752 95.4368C408.604 94.4048 420.244 93.8122 429.922 93.8122C457.203 93.8122 482.087 95.0531 504.21 96.9567C529.436 99.1274 545.846 100.621 559.67 104.789C572.472 108.65 583.388 114.965 596.121 128.048C608.867 141.145 614.877 152.2 618.38 165.024C622.163 178.876 623.204 195.204 624.681 220.337C625.51 234.438 626.006 249.574 626.006 265.608C626.006 281.642 625.51 296.779 624.681 310.88C623.204 336.012 622.163 352.34 618.38 366.192C614.877 379.016 608.867 390.071 596.121 403.168C583.388 416.251 572.472 422.567 559.67 426.427C545.846 430.595 529.436 432.089 504.21 434.259C482.088 436.163 457.203 437.404 429.922 437.404C405.247 437.404 381.885 436.203 360.515 434.346C333.51 432 315.685 430.375 300.881 426.047C287.125 422.024 275.857 415.574 263.267 402.548C250.619 389.462 244.586 378.109 241.072 364.581C237.285 350.001 236.294 332.654 234.903 306.236C234.231 293.471 233.837 279.895 233.837 265.608C233.837 263.933 233.87 262.073 233.935 260.035C236.351 184.295 238.181 155.558 262.199 130.353C274.109 117.853 287.776 110.69 308.206 105.85C329.511 100.803 356.771 98.5667 395.752 95.4368Z" stroke="url(#paint13_linear)" stroke-opacity="0.5" stroke-width="35.544"/>
<path d="M329.537 89.3974C358.516 85.8392 392.729 83.149 429.922 83.149C470.125 83.149 505.205 85.8122 534.03 89.3375C572.797 94.0789 589.53 96.329 608.5 115.775C627.471 135.222 629.301 151.97 633.073 190.764C635.193 212.576 636.669 237.76 636.669 265.608C636.669 293.456 635.193 318.64 633.073 340.452C629.301 379.246 627.471 395.994 608.5 415.441C589.53 434.887 572.797 437.137 534.03 441.879C505.205 445.404 470.125 448.067 429.922 448.067C392.729 448.067 358.516 445.377 329.537 441.819C287.94 436.711 269.959 434.269 251.008 414.741C232.046 395.2 230.197 377.615 226.436 336.922C224.496 315.937 223.174 291.966 223.174 265.608C223.174 239.25 224.496 215.279 226.436 194.294C230.197 153.601 232.046 136.016 251.008 116.475C269.959 96.9474 287.94 94.5048 329.537 89.3974Z" stroke="url(#paint14_radial)" stroke-opacity="0.8" stroke-width="14.2176"/>
</g>
</g>
<g filter="url(#filter12_d)">
<rect x="700.648" y="31.0179" width="4.7392" height="475.104" fill="#0F1117"/>
</g>
<g filter="url(#filter13_i)">
<rect x="735.007" y="286.934" width="85.3055" height="9.47839" rx="4.7392" fill="#0F1117"/>
</g>
<rect x="735.6" y="287.527" width="84.1207" height="8.29359" rx="4.1468" stroke="url(#paint15_linear)" stroke-width="1.1848"/>
<g filter="url(#filter14_i)">
<rect x="735.007" y="305.891" width="85.3055" height="9.47839" rx="4.7392" fill="#0F1117"/>
</g>
<rect x="735.6" y="306.484" width="84.1207" height="8.29359" rx="4.1468" stroke="url(#paint16_linear)" stroke-width="1.1848"/>
<g filter="url(#filter15_i)">
<rect x="735.007" y="324.848" width="85.3055" height="9.47839" rx="4.7392" fill="#0F1117"/>
</g>
<rect x="735.6" y="325.44" width="84.1207" height="8.29359" rx="4.1468" stroke="url(#paint17_linear)" stroke-width="1.1848"/>
<g filter="url(#filter16_i)">
<rect x="735.007" y="343.805" width="85.3055" height="9.47839" rx="4.7392" fill="#0F1117"/>
</g>
<rect x="735.6" y="344.397" width="84.1207" height="8.29359" rx="4.1468" stroke="url(#paint18_linear)" stroke-width="1.1848"/>
<g filter="url(#filter17_i)">
<rect x="735.007" y="362.762" width="85.3055" height="9.47839" rx="4.7392" fill="#0F1117"/>
</g>
<rect x="735.6" y="363.354" width="84.1207" height="8.29359" rx="4.1468" stroke="url(#paint19_linear)" stroke-width="1.1848"/>
<g filter="url(#filter18_i)">
<rect x="735.007" y="381.718" width="85.3055" height="9.47839" rx="4.7392" fill="#0F1117"/>
</g>
<rect x="735.6" y="382.311" width="84.1207" height="8.29359" rx="4.1468" stroke="url(#paint20_linear)" stroke-width="1.1848"/>
<g filter="url(#filter19_i)">
<rect x="735.007" y="400.675" width="85.3055" height="9.47839" rx="4.7392" fill="#0F1117"/>
</g>
<rect x="735.6" y="401.268" width="84.1207" height="8.29359" rx="4.1468" stroke="url(#paint21_linear)" stroke-width="1.1848"/>
<g filter="url(#filter20_i)">
<rect x="735.007" y="419.632" width="85.3055" height="9.47839" rx="4.7392" fill="#0F1117"/>
</g>
<rect x="735.6" y="420.224" width="84.1207" height="8.29359" rx="4.1468" stroke="url(#paint22_linear)" stroke-width="1.1848"/>
<g filter="url(#filter21_i)">
<rect x="735.007" y="438.589" width="85.3055" height="9.47839" rx="4.7392" fill="#0F1117"/>
</g>
<rect x="735.6" y="439.181" width="84.1207" height="8.29359" rx="4.1468" stroke="url(#paint23_linear)" stroke-width="1.1848"/>
<path d="M162.982 130.111C165.157 84.3831 166.244 61.5191 181.592 46.0107C196.941 30.5023 219.714 29.1826 265.26 26.5432C327.912 22.9126 414.602 19.1699 505.748 19.1699C596.895 19.1699 683.585 22.9126 746.237 26.5432C791.783 29.1826 814.556 30.5023 829.905 46.0107C845.253 61.5191 846.34 84.383 848.515 130.111C850.523 172.338 852.302 222.045 852.302 265.608C852.302 309.172 850.523 358.879 848.515 401.105C846.34 446.833 845.253 469.697 829.905 485.205C814.556 500.714 791.783 502.033 746.237 504.673C683.585 508.304 596.895 512.046 505.748 512.046C414.602 512.046 327.912 508.304 265.26 504.673C219.714 502.033 196.941 500.714 181.592 485.205C166.244 469.697 165.157 446.833 162.982 401.105C160.974 358.879 159.195 309.172 159.195 265.608C159.195 222.045 160.974 172.338 162.982 130.111Z" stroke="url(#paint24_linear)" stroke-width="2.3696"/>
<g filter="url(#filter22_d)">
<circle cx="772.921" cy="138.835" r="46.2072" fill="url(#paint25_linear)"/>
<circle cx="772.921" cy="138.835" r="45.0224" stroke="url(#paint26_linear)" stroke-width="2.3696"/>
</g>
<g filter="url(#filter23_d)">
<rect x="741.694" y="153.212" width="64.4939" height="25.3212" rx="12.6606" transform="rotate(-45 741.694 153.212)" fill="url(#paint27_linear)"/>
<rect x="745.045" y="153.212" width="59.7547" height="20.582" rx="10.291" transform="rotate(-45 745.045 153.212)" stroke="url(#paint28_linear)" stroke-width="4.7392"/>
</g>
<g filter="url(#filter24_d)">
<circle cx="747.448" cy="234.211" r="17.1796" fill="url(#paint29_linear)"/>
<circle cx="747.448" cy="234.211" r="14.81" stroke="url(#paint30_linear)" stroke-width="4.7392"/>
</g>
<g filter="url(#filter25_d)">
<circle cx="801.948" cy="234.211" r="17.1796" fill="url(#paint31_linear)"/>
<circle cx="801.948" cy="234.211" r="14.81" stroke="url(#paint32_linear)" stroke-width="4.7392"/>
</g>
<defs>
<filter id="filter0_f" x="0.472725" y="437.473" width="1007.29" height="281.055" filterUnits="userSpaceOnUse" color-interpolation-filters="sRGB">
<feFlood flood-opacity="0" result="BackgroundImageFix"/>
<feBlend mode="normal" in="SourceGraphic" in2="BackgroundImageFix" result="shape"/>
<feGaussianBlur stdDeviation="40.7636" result="effect1_foregroundBlur"/>
</filter>
<filter id="filter1_f" x="196.782" y="515.636" width="614.673" height="89.0364" filterUnits="userSpaceOnUse" color-interpolation-filters="sRGB">
<feFlood flood-opacity="0" result="BackgroundImageFix"/>
<feBlend mode="normal" in="SourceGraphic" in2="BackgroundImageFix" result="shape"/>
<feGaussianBlur stdDeviation="3.21818" result="effect1_foregroundBlur"/>
</filter>
<filter id="filter2_di" x="212.511" y="508.492" width="591.215" height="86.4903" filterUnits="userSpaceOnUse" color-interpolation-filters="sRGB">
<feFlood flood-opacity="0" result="BackgroundImageFix"/>
<feColorMatrix in="SourceAlpha" type="matrix" values="0 0 0 0 0 0 0 0 0 0 0 0 0 0 0 0 0 0 127 0" result="hardAlpha"/>
<feOffset dy="2.3696"/>
<feGaussianBlur stdDeviation="1.7772"/>
<feColorMatrix type="matrix" values="0 0 0 0 0 0 0 0 0 0 0 0 0 0 0 0 0 0 0.3 0"/>
<feBlend mode="normal" in2="BackgroundImageFix" result="effect1_dropShadow"/>
<feBlend mode="normal" in="SourceGraphic" in2="effect1_dropShadow" result="shape"/>
<feColorMatrix in="SourceAlpha" type="matrix" values="0 0 0 0 0 0 0 0 0 0 0 0 0 0 0 0 0 0 127 0" result="hardAlpha"/>
<feOffset dy="28.4352"/>
<feComposite in2="hardAlpha" operator="arithmetic" k2="-1" k3="1"/>
<feColorMatrix type="matrix" values="0 0 0 0 0 0 0 0 0 0 0 0 0 0 0 0 0 0 0.2 0"/>
<feBlend mode="normal" in2="shape" result="effect2_innerShadow"/>
</filter>
<filter id="filter3_i" x="159.195" y="19.1699" width="693.107" height="492.876" filterUnits="userSpaceOnUse" color-interpolation-filters="sRGB">
<feFlood flood-opacity="0" result="BackgroundImageFix"/>
<feBlend mode="normal" in="SourceGraphic" in2="BackgroundImageFix" result="shape"/>
<feColorMatrix in="SourceAlpha" type="matrix" values="0 0 0 0 0 0 0 0 0 0 0 0 0 0 0 0 0 0 127 0" result="hardAlpha"/>
<feOffset/>
<feGaussianBlur stdDeviation="11.848"/>
<feComposite in2="hardAlpha" operator="arithmetic" k2="-1" k3="1"/>
<feColorMatrix type="matrix" values="0 0 0 0 0 0 0 0 0 0 0 0 0 0 0 0 0 0 1 0"/>
<feBlend mode="normal" in2="shape" result="effect1_innerShadow"/>
</filter>
<filter id="filter4_f" x="193.554" y="53.5291" width="472.734" height="424.158" filterUnits="userSpaceOnUse" color-interpolation-filters="sRGB">
<feFlood flood-opacity="0" result="BackgroundImageFix"/>
<feBlend mode="normal" in="SourceGraphic" in2="BackgroundImageFix" result="shape"/>
<feGaussianBlur stdDeviation="1.1848" result="effect1_foregroundBlur"/>
</filter>
<filter id="filter5_f" x="285.969" y="439.551" width="289.684" height="25.6953" filterUnits="userSpaceOnUse" color-interpolation-filters="sRGB">
<feFlood flood-opacity="0" result="BackgroundImageFix"/>
<feBlend mode="normal" in="SourceGraphic" in2="BackgroundImageFix" result="shape"/>
<feGaussianBlur stdDeviation="1.7772" result="effect1_foregroundBlur"/>
</filter>
<filter id="filter6_f" x="633.115" y="116.323" width="25.6952" height="289.683" filterUnits="userSpaceOnUse" color-interpolation-filters="sRGB">
<feFlood flood-opacity="0" result="BackgroundImageFix"/>
<feBlend mode="normal" in="SourceGraphic" in2="BackgroundImageFix" result="shape"/>
<feGaussianBlur stdDeviation="1.7772" result="effect1_foregroundBlur"/>
</filter>
<filter id="filter7_f" x="207.772" y="120.47" width="32.1439" height="285.537" filterUnits="userSpaceOnUse" color-interpolation-filters="sRGB">
<feFlood flood-opacity="0" result="BackgroundImageFix"/>
<feBlend mode="normal" in="SourceGraphic" in2="BackgroundImageFix" result="shape"/>
<feGaussianBlur stdDeviation="1.7772" result="effect1_foregroundBlur"/>
</filter>
<filter id="filter8_di" x="194.739" y="54.7139" width="470.365" height="421.788" filterUnits="userSpaceOnUse" color-interpolation-filters="sRGB">
<feFlood flood-opacity="0" result="BackgroundImageFix"/>
<feColorMatrix in="SourceAlpha" type="matrix" values="0 0 0 0 0 0 0 0 0 0 0 0 0 0 0 0 0 0 127 0" result="hardAlpha"/>
<feOffset/>
<feGaussianBlur stdDeviation="10.6632"/>
<feColorMatrix type="matrix" values="0 0 0 0 0 0 0 0 0 0 0 0 0 0 0 0 0 0 0.6 0"/>
<feBlend mode="normal" in2="BackgroundImageFix" result="effect1_dropShadow"/>
<feBlend mode="normal" in="SourceGraphic" in2="effect1_dropShadow" result="shape"/>
<feColorMatrix in="SourceAlpha" type="matrix" values="0 0 0 0 0 0 0 0 0 0 0 0 0 0 0 0 0 0 127 0" result="hardAlpha"/>
<feOffset/>
<feGaussianBlur stdDeviation="4.1468"/>
<feComposite in2="hardAlpha" operator="arithmetic" k2="-1" k3="1"/>
<feColorMatrix type="matrix" values="0 0 0 0 0 0 0 0 0 0 0 0 0 0 0 0 0 0 0.7 0"/>
<feBlend mode="normal" in2="shape" result="effect2_innerShadow"/>
</filter>
<filter id="filter9_i" x="216.065" y="76.0403" width="427.712" height="383.875" filterUnits="userSpaceOnUse" color-interpolation-filters="sRGB">
<feFlood flood-opacity="0" result="BackgroundImageFix"/>
<feBlend mode="normal" in="SourceGraphic" in2="BackgroundImageFix" result="shape"/>
<feColorMatrix in="SourceAlpha" type="matrix" values="0 0 0 0 0 0 0 0 0 0 0 0 0 0 0 0 0 0 127 0" result="hardAlpha"/>
<feOffset dy="4.7392"/>
<feGaussianBlur stdDeviation="26.0656"/>
<feComposite in2="hardAlpha" operator="arithmetic" k2="-1" k3="1"/>
<feColorMatrix type="matrix" values="0 0 0 0 0 0 0 0 0 0.0932017 0 0 0 0 0.104167 0 0 0 1 0"/>
<feBlend mode="normal" in2="shape" result="effect1_innerShadow"/>
</filter>
<filter id="filter10_f" x="67.9654" y="-99.31" width="725.097" height="449.039" filterUnits="userSpaceOnUse" color-interpolation-filters="sRGB">
<feFlood flood-opacity="0" result="BackgroundImageFix"/>
<feBlend mode="normal" in="SourceGraphic" in2="BackgroundImageFix" result="shape"/>
<feGaussianBlur stdDeviation="59.2399" result="effect1_foregroundBlur"/>
</filter>
<filter id="filter11_f" x="218.435" y="390.012" width="428.897" height="93.5991" filterUnits="userSpaceOnUse" color-interpolation-filters="sRGB">
<feFlood flood-opacity="0" result="BackgroundImageFix"/>
<feBlend mode="normal" in="SourceGraphic" in2="BackgroundImageFix" result="shape"/>
<feGaussianBlur stdDeviation="17.772" result="effect1_foregroundBlur"/>
</filter>
<filter id="filter12_d" x="700.648" y="31.0179" width="7.10886" height="475.104" filterUnits="userSpaceOnUse" color-interpolation-filters="sRGB">
<feFlood flood-opacity="0" result="BackgroundImageFix"/>
<feColorMatrix in="SourceAlpha" type="matrix" values="0 0 0 0 0 0 0 0 0 0 0 0 0 0 0 0 0 0 127 0" result="hardAlpha"/>
<feOffset dx="2.3696"/>
<feColorMatrix type="matrix" values="0 0 0 0 1 0 0 0 0 1 0 0 0 0 1 0 0 0 0.4 0"/>
<feBlend mode="normal" in2="BackgroundImageFix" result="effect1_dropShadow"/>
<feBlend mode="normal" in="SourceGraphic" in2="effect1_dropShadow" result="shape"/>
</filter>
<filter id="filter13_i" x="735.007" y="286.934" width="85.3057" height="9.47839" filterUnits="userSpaceOnUse" color-interpolation-filters="sRGB">
<feFlood flood-opacity="0" result="BackgroundImageFix"/>
<feBlend mode="normal" in="SourceGraphic" in2="BackgroundImageFix" result="shape"/>
<feColorMatrix in="SourceAlpha" type="matrix" values="0 0 0 0 0 0 0 0 0 0 0 0 0 0 0 0 0 0 127 0" result="hardAlpha"/>
<feOffset dy="-2.3696"/>
<feComposite in2="hardAlpha" operator="arithmetic" k2="-1" k3="1"/>
<feColorMatrix type="matrix" values="0 0 0 0 0.435294 0 0 0 0 0.439216 0 0 0 0 0.454902 0 0 0 1 0"/>
<feBlend mode="normal" in2="shape" result="effect1_innerShadow"/>
</filter>
<filter id="filter14_i" x="735.007" y="305.891" width="85.3057" height="9.47839" filterUnits="userSpaceOnUse" color-interpolation-filters="sRGB">
<feFlood flood-opacity="0" result="BackgroundImageFix"/>
<feBlend mode="normal" in="SourceGraphic" in2="BackgroundImageFix" result="shape"/>
<feColorMatrix in="SourceAlpha" type="matrix" values="0 0 0 0 0 0 0 0 0 0 0 0 0 0 0 0 0 0 127 0" result="hardAlpha"/>
<feOffset dy="-2.3696"/>
<feComposite in2="hardAlpha" operator="arithmetic" k2="-1" k3="1"/>
<feColorMatrix type="matrix" values="0 0 0 0 0.435294 0 0 0 0 0.439216 0 0 0 0 0.454902 0 0 0 1 0"/>
<feBlend mode="normal" in2="shape" result="effect1_innerShadow"/>
</filter>
<filter id="filter15_i" x="735.007" y="324.848" width="85.3057" height="9.47839" filterUnits="userSpaceOnUse" color-interpolation-filters="sRGB">
<feFlood flood-opacity="0" result="BackgroundImageFix"/>
<feBlend mode="normal" in="SourceGraphic" in2="BackgroundImageFix" result="shape"/>
<feColorMatrix in="SourceAlpha" type="matrix" values="0 0 0 0 0 0 0 0 0 0 0 0 0 0 0 0 0 0 127 0" result="hardAlpha"/>
<feOffset dy="-2.3696"/>
<feComposite in2="hardAlpha" operator="arithmetic" k2="-1" k3="1"/>
<feColorMatrix type="matrix" values="0 0 0 0 0.435294 0 0 0 0 0.439216 0 0 0 0 0.454902 0 0 0 1 0"/>
<feBlend mode="normal" in2="shape" result="effect1_innerShadow"/>
</filter>
<filter id="filter16_i" x="735.007" y="343.805" width="85.3057" height="9.47839" filterUnits="userSpaceOnUse" color-interpolation-filters="sRGB">
<feFlood flood-opacity="0" result="BackgroundImageFix"/>
<feBlend mode="normal" in="SourceGraphic" in2="BackgroundImageFix" result="shape"/>
<feColorMatrix in="SourceAlpha" type="matrix" values="0 0 0 0 0 0 0 0 0 0 0 0 0 0 0 0 0 0 127 0" result="hardAlpha"/>
<feOffset dy="-2.3696"/>
<feComposite in2="hardAlpha" operator="arithmetic" k2="-1" k3="1"/>
<feColorMatrix type="matrix" values="0 0 0 0 0.435294 0 0 0 0 0.439216 0 0 0 0 0.454902 0 0 0 1 0"/>
<feBlend mode="normal" in2="shape" result="effect1_innerShadow"/>
</filter>
<filter id="filter17_i" x="735.007" y="362.762" width="85.3057" height="9.47839" filterUnits="userSpaceOnUse" color-interpolation-filters="sRGB">
<feFlood flood-opacity="0" result="BackgroundImageFix"/>
<feBlend mode="normal" in="SourceGraphic" in2="BackgroundImageFix" result="shape"/>
<feColorMatrix in="SourceAlpha" type="matrix" values="0 0 0 0 0 0 0 0 0 0 0 0 0 0 0 0 0 0 127 0" result="hardAlpha"/>
<feOffset dy="-2.3696"/>
<feComposite in2="hardAlpha" operator="arithmetic" k2="-1" k3="1"/>
<feColorMatrix type="matrix" values="0 0 0 0 0.435294 0 0 0 0 0.439216 0 0 0 0 0.454902 0 0 0 1 0"/>
<feBlend mode="normal" in2="shape" result="effect1_innerShadow"/>
</filter>
<filter id="filter18_i" x="735.007" y="381.718" width="85.3057" height="9.47839" filterUnits="userSpaceOnUse" color-interpolation-filters="sRGB">
<feFlood flood-opacity="0" result="BackgroundImageFix"/>
<feBlend mode="normal" in="SourceGraphic" in2="BackgroundImageFix" result="shape"/>
<feColorMatrix in="SourceAlpha" type="matrix" values="0 0 0 0 0 0 0 0 0 0 0 0 0 0 0 0 0 0 127 0" result="hardAlpha"/>
<feOffset dy="-2.3696"/>
<feComposite in2="hardAlpha" operator="arithmetic" k2="-1" k3="1"/>
<feColorMatrix type="matrix" values="0 0 0 0 0.435294 0 0 0 0 0.439216 0 0 0 0 0.454902 0 0 0 1 0"/>
<feBlend mode="normal" in2="shape" result="effect1_innerShadow"/>
</filter>
<filter id="filter19_i" x="735.007" y="400.675" width="85.3057" height="9.47839" filterUnits="userSpaceOnUse" color-interpolation-filters="sRGB">
<feFlood flood-opacity="0" result="BackgroundImageFix"/>
<feBlend mode="normal" in="SourceGraphic" in2="BackgroundImageFix" result="shape"/>
<feColorMatrix in="SourceAlpha" type="matrix" values="0 0 0 0 0 0 0 0 0 0 0 0 0 0 0 0 0 0 127 0" result="hardAlpha"/>
<feOffset dy="-2.3696"/>
<feComposite in2="hardAlpha" operator="arithmetic" k2="-1" k3="1"/>
<feColorMatrix type="matrix" values="0 0 0 0 0.435294 0 0 0 0 0.439216 0 0 0 0 0.454902 0 0 0 1 0"/>
<feBlend mode="normal" in2="shape" result="effect1_innerShadow"/>
</filter>
<filter id="filter20_i" x="735.007" y="419.632" width="85.3057" height="9.47839" filterUnits="userSpaceOnUse" color-interpolation-filters="sRGB">
<feFlood flood-opacity="0" result="BackgroundImageFix"/>
<feBlend mode="normal" in="SourceGraphic" in2="BackgroundImageFix" result="shape"/>
<feColorMatrix in="SourceAlpha" type="matrix" values="0 0 0 0 0 0 0 0 0 0 0 0 0 0 0 0 0 0 127 0" result="hardAlpha"/>
<feOffset dy="-2.3696"/>
<feComposite in2="hardAlpha" operator="arithmetic" k2="-1" k3="1"/>
<feColorMatrix type="matrix" values="0 0 0 0 0.435294 0 0 0 0 0.439216 0 0 0 0 0.454902 0 0 0 1 0"/>
<feBlend mode="normal" in2="shape" result="effect1_innerShadow"/>
</filter>
<filter id="filter21_i" x="735.007" y="438.589" width="85.3057" height="9.47839" filterUnits="userSpaceOnUse" color-interpolation-filters="sRGB">
<feFlood flood-opacity="0" result="BackgroundImageFix"/>
<feBlend mode="normal" in="SourceGraphic" in2="BackgroundImageFix" result="shape"/>
<feColorMatrix in="SourceAlpha" type="matrix" values="0 0 0 0 0 0 0 0 0 0 0 0 0 0 0 0 0 0 127 0" result="hardAlpha"/>
<feOffset dy="-2.3696"/>
<feComposite in2="hardAlpha" operator="arithmetic" k2="-1" k3="1"/>
<feColorMatrix type="matrix" values="0 0 0 0 0.435294 0 0 0 0 0.439216 0 0 0 0 0.454902 0 0 0 1 0"/>
<feBlend mode="normal" in2="shape" result="effect1_innerShadow"/>
</filter>
<filter id="filter22_d" x="712.496" y="83.149" width="139.807" height="139.806" filterUnits="userSpaceOnUse" color-interpolation-filters="sRGB">
<feFlood flood-opacity="0" result="BackgroundImageFix"/>
<feColorMatrix in="SourceAlpha" type="matrix" values="0 0 0 0 0 0 0 0 0 0 0 0 0 0 0 0 0 0 127 0" result="hardAlpha"/>
<feOffset dx="9.47839" dy="14.2176"/>
<feGaussianBlur stdDeviation="11.848"/>
<feColorMatrix type="matrix" values="0 0 0 0 0 0 0 0 0 0 0 0 0 0 0 0 0 0 0.8 0"/>
<feBlend mode="normal" in2="BackgroundImageFix" result="effect1_dropShadow"/>
<feBlend mode="normal" in="SourceGraphic" in2="effect1_dropShadow" result="shape"/>
</filter>
<filter id="filter23_d" x="732.216" y="98.1295" width="91.944" height="91.9441" filterUnits="userSpaceOnUse" color-interpolation-filters="sRGB">
<feFlood flood-opacity="0" result="BackgroundImageFix"/>
<feColorMatrix in="SourceAlpha" type="matrix" values="0 0 0 0 0 0 0 0 0 0 0 0 0 0 0 0 0 0 127 0" result="hardAlpha"/>
<feOffset dx="4.7392" dy="4.7392"/>
<feGaussianBlur stdDeviation="7.10879"/>
<feColorMatrix type="matrix" values="0 0 0 0 0 0 0 0 0 0 0 0 0 0 0 0 0 0 0.8 0"/>
<feBlend mode="normal" in2="BackgroundImageFix" result="effect1_dropShadow"/>
<feBlend mode="normal" in="SourceGraphic" in2="effect1_dropShadow" result="shape"/>
</filter>
<filter id="filter24_d" x="716.05" y="207.553" width="81.7513" height="81.7511" filterUnits="userSpaceOnUse" color-interpolation-filters="sRGB">
<feFlood flood-opacity="0" result="BackgroundImageFix"/>
<feColorMatrix in="SourceAlpha" type="matrix" values="0 0 0 0 0 0 0 0 0 0 0 0 0 0 0 0 0 0 127 0" result="hardAlpha"/>
<feOffset dx="9.47839" dy="14.2176"/>
<feGaussianBlur stdDeviation="11.848"/>
<feColorMatrix type="matrix" values="0 0 0 0 0 0 0 0 0 0 0 0 0 0 0 0 0 0 0.8 0"/>
<feBlend mode="normal" in2="BackgroundImageFix" result="effect1_dropShadow"/>
<feBlend mode="normal" in="SourceGraphic" in2="effect1_dropShadow" result="shape"/>
</filter>
<filter id="filter25_d" x="770.551" y="207.553" width="81.7513" height="81.7511" filterUnits="userSpaceOnUse" color-interpolation-filters="sRGB">
<feFlood flood-opacity="0" result="BackgroundImageFix"/>
<feColorMatrix in="SourceAlpha" type="matrix" values="0 0 0 0 0 0 0 0 0 0 0 0 0 0 0 0 0 0 127 0" result="hardAlpha"/>
<feOffset dx="9.47839" dy="14.2176"/>
<feGaussianBlur stdDeviation="11.848"/>
<feColorMatrix type="matrix" values="0 0 0 0 0 0 0 0 0 0 0 0 0 0 0 0 0 0 0.8 0"/>
<feBlend mode="normal" in2="BackgroundImageFix" result="effect1_dropShadow"/>
<feBlend mode="normal" in="SourceGraphic" in2="effect1_dropShadow" result="shape"/>
</filter>
<linearGradient id="paint0_linear" x1="95.8399" y1="589.062" x2="926.237" y2="590.136" gradientUnits="userSpaceOnUse">
<stop stop-color="#210305" stop-opacity="0.4"/>
<stop offset="0.471059" stop-color="#210305"/>
<stop offset="1" stop-color="#210305" stop-opacity="0.4"/>
</linearGradient>
<linearGradient id="paint1_linear" x1="203.218" y1="570.844" x2="805.019" y2="569.224" gradientUnits="userSpaceOnUse">
<stop stop-color="#210305" stop-opacity="0.1"/>
<stop offset="0.476488" stop-color="#210305"/>
<stop offset="1" stop-color="#210305" stop-opacity="0.1"/>
</linearGradient>
<linearGradient id="paint2_linear" x1="508.118" y1="509.677" x2="508.711" y2="584.911" gradientUnits="userSpaceOnUse">
<stop stop-color="#520609"/>
<stop offset="0.56405" stop-color="#BA1118"/>
<stop offset="0.778892" stop-color="#F79094"/>
<stop offset="1" stop-color="#BC0C13"/>
</linearGradient>
<linearGradient id="paint3_linear" x1="170.297" y1="22.0764" x2="847.76" y2="512.899" gradientUnits="userSpaceOnUse">
<stop stop-color="#ED2C35"/>
<stop offset="1" stop-color="#B00910"/>
</linearGradient>
<linearGradient id="paint4_linear" x1="202.514" y1="43.5095" x2="821.819" y2="505.321" gradientUnits="userSpaceOnUse">
<stop stop-color="#3A454A"/>
<stop offset="0.412793" stop-color="#828A92"/>
<stop offset="0.831705" stop-color="#10141B"/>
</linearGradient>
<linearGradient id="paint5_linear" x1="295.629" y1="89.7932" x2="613.197" y2="440.37" gradientUnits="userSpaceOnUse">
<stop stop-color="#14263D"/>
<stop offset="0.44069" stop-color="#4E555E"/>
<stop offset="0.498806" stop-color="#8E949B"/>
<stop offset="0.5878" stop-color="#546468"/>
<stop offset="1" stop-color="white" stop-opacity="0.8"/>
</linearGradient>
<linearGradient id="paint6_linear" x1="589.277" y1="71.3011" x2="245.093" y2="489.535" gradientUnits="userSpaceOnUse">
<stop stop-color="#151414"/>
<stop offset="0.345426" stop-opacity="0.4"/>
<stop offset="0.420838" stop-color="#EDEDED" stop-opacity="0.6"/>
<stop offset="0.46143" stop-opacity="0.5"/>
<stop offset="1" stop-opacity="0"/>
</linearGradient>
<linearGradient id="paint7_linear" x1="308.676" y1="67.5973" x2="620.73" y2="467.149" gradientUnits="userSpaceOnUse">
<stop stop-color="#B2BCC0"/>
<stop offset="0.341238" stop-color="#B2BCC0" stop-opacity="0.5"/>
<stop offset="0.510085" stop-color="#121417" stop-opacity="0.820439"/>
<stop offset="1" stop-color="#272B34"/>
</linearGradient>
<linearGradient id="paint8_linear" x1="319.143" y1="446.882" x2="553.733" y2="446.883" gradientUnits="userSpaceOnUse">
<stop stop-color="white" stop-opacity="0.4"/>
<stop offset="0.505632" stop-color="white"/>
<stop offset="1" stop-color="white" stop-opacity="0.4"/>
</linearGradient>
<linearGradient id="paint9_linear" x1="640.446" y1="372.832" x2="640.446" y2="138.242" gradientUnits="userSpaceOnUse">
<stop stop-color="white" stop-opacity="0.4"/>
<stop offset="0.505632" stop-color="white"/>
<stop offset="1" stop-color="white" stop-opacity="0.1"/>
</linearGradient>
<linearGradient id="paint10_linear" x1="226.136" y1="372.832" x2="226.136" y2="138.242" gradientUnits="userSpaceOnUse">
<stop stop-color="white" stop-opacity="0.3"/>
<stop offset="0.505632" stop-color="white"/>
<stop offset="1" stop-color="white" stop-opacity="0.4"/>
</linearGradient>
<linearGradient id="paint11_linear" x1="430.508" y1="76.0402" x2="512.725" y2="436.419" gradientUnits="userSpaceOnUse">
<stop stop-color="#C2CFD4"/>
<stop offset="1" stop-color="#578487"/>
</linearGradient>
<linearGradient id="paint12_linear" x1="430.508" y1="76.0402" x2="512.725" y2="436.419" gradientUnits="userSpaceOnUse">
<stop stop-color="#C2CFD4"/>
<stop offset="1" stop-color="#578487"/>
</linearGradient>
<linearGradient id="paint13_linear" x1="248.055" y1="123.432" x2="349.948" y2="229.472" gradientUnits="userSpaceOnUse">
<stop stop-color="#7AA6A5"/>
<stop offset="1" stop-color="#7AA6A5" stop-opacity="0"/>
</linearGradient>
<radialGradient id="paint14_radial" cx="0" cy="0" r="1" gradientUnits="userSpaceOnUse" gradientTransform="translate(430.514 76.0402) rotate(90.0895) scale(379.136 427.713)">
<stop stop-color="#406568"/>
<stop offset="1" stop-color="#4F7173"/>
</radialGradient>
<linearGradient id="paint15_linear" x1="777.66" y1="286.934" x2="777.66" y2="293.451" gradientUnits="userSpaceOnUse">
<stop stop-color="#34343F"/>
<stop offset="1" stop-opacity="0"/>
</linearGradient>
<linearGradient id="paint16_linear" x1="777.66" y1="305.891" x2="777.66" y2="312.408" gradientUnits="userSpaceOnUse">
<stop stop-color="#34343F"/>
<stop offset="1" stop-opacity="0"/>
</linearGradient>
<linearGradient id="paint17_linear" x1="777.66" y1="324.848" x2="777.66" y2="331.364" gradientUnits="userSpaceOnUse">
<stop stop-color="#34343F"/>
<stop offset="1" stop-opacity="0"/>
</linearGradient>
<linearGradient id="paint18_linear" x1="777.66" y1="343.805" x2="777.66" y2="350.321" gradientUnits="userSpaceOnUse">
<stop stop-color="#34343F"/>
<stop offset="1" stop-opacity="0"/>
</linearGradient>
<linearGradient id="paint19_linear" x1="777.66" y1="362.762" x2="777.66" y2="369.278" gradientUnits="userSpaceOnUse">
<stop stop-color="#34343F"/>
<stop offset="1" stop-opacity="0"/>
</linearGradient>
<linearGradient id="paint20_linear" x1="777.66" y1="381.718" x2="777.66" y2="388.235" gradientUnits="userSpaceOnUse">
<stop stop-color="#34343F"/>
<stop offset="1" stop-opacity="0"/>
</linearGradient>
<linearGradient id="paint21_linear" x1="777.66" y1="400.675" x2="777.66" y2="407.191" gradientUnits="userSpaceOnUse">
<stop stop-color="#34343F"/>
<stop offset="1" stop-opacity="0"/>
</linearGradient>
<linearGradient id="paint22_linear" x1="777.66" y1="419.632" x2="777.66" y2="426.148" gradientUnits="userSpaceOnUse">
<stop stop-color="#34343F"/>
<stop offset="1" stop-opacity="0"/>
</linearGradient>
<linearGradient id="paint23_linear" x1="777.66" y1="438.589" x2="777.66" y2="445.105" gradientUnits="userSpaceOnUse">
<stop stop-color="#34343F"/>
<stop offset="1" stop-opacity="0"/>
</linearGradient>
<linearGradient id="paint24_linear" x1="159.195" y1="265.608" x2="852.302" y2="265.608" gradientUnits="userSpaceOnUse">
<stop stop-color="#FBC7E0" stop-opacity="0"/>
<stop offset="0.156777" stop-color="#F0A8AB"/>
<stop offset="1" stop-color="#FBC7E0" stop-opacity="0.9"/>
</linearGradient>
<linearGradient id="paint25_linear" x1="732.489" y1="97.1911" x2="816.213" y2="141.881" gradientUnits="userSpaceOnUse">
<stop stop-color="#394048"/>
<stop offset="0.9513" stop-color="#15181D"/>
</linearGradient>
<linearGradient id="paint26_linear" x1="748.632" y1="101.513" x2="800.763" y2="177.341" gradientUnits="userSpaceOnUse">
<stop stop-color="#797E83"/>
<stop offset="1"/>
</linearGradient>
<linearGradient id="paint27_linear" x1="745.725" y1="154.462" x2="777.476" y2="197.346" gradientUnits="userSpaceOnUse">
<stop stop-color="#3A454A"/>
<stop offset="0.831705" stop-color="#10141B"/>
</linearGradient>
<linearGradient id="paint28_linear" x1="756.991" y1="155.647" x2="764.689" y2="184.165" gradientUnits="userSpaceOnUse">
<stop stop-color="#797E83"/>
<stop offset="1"/>
</linearGradient>
<linearGradient id="paint29_linear" x1="732.416" y1="218.728" x2="769.703" y2="238.5" gradientUnits="userSpaceOnUse">
<stop stop-color="#3A454A"/>
<stop offset="0.831705" stop-color="#151922"/>
</linearGradient>
<linearGradient id="paint30_linear" x1="738.417" y1="220.335" x2="757.799" y2="248.527" gradientUnits="userSpaceOnUse">
<stop stop-color="#797E83"/>
<stop offset="1"/>
</linearGradient>
<linearGradient id="paint31_linear" x1="786.916" y1="218.728" x2="824.203" y2="238.5" gradientUnits="userSpaceOnUse">
<stop stop-color="#3A454A"/>
<stop offset="0.831705" stop-color="#151922"/>
</linearGradient>
<linearGradient id="paint32_linear" x1="792.918" y1="220.335" x2="812.3" y2="248.527" gradientUnits="userSpaceOnUse">
<stop stop-color="#797E83"/>
<stop offset="1"/>
</linearGradient>
</defs>
</svg>
